<svg xmlns="http://www.w3.org/2000/svg" version="1.1" xmlns:xlink="http://www.w3.org/1999/xlink" xmlns:svgjs="http://svgjs.dev/svgjs" viewBox="0 0 800 800"><defs><radialGradient id="ccclaymoji-grad-dark" r="93%" cx="20%" cy="20%">
      <stop offset="70%" stop-color="hsl(44, 100%, 80%)" stop-opacity="0"></stop>
      <stop offset="97%" stop-color="#cab26a" stop-opacity="1"></stop>
    </radialGradient><radialGradient id="ccclaymoji-grad-light" r="65%" cx="28%" cy="20%">
    <stop offset="0%" stop-color="#ffffca" stop-opacity="0.75"></stop>
    <stop offset="100%" stop-color="hsl(44, 100%, 80%)" stop-opacity="0"></stop>
  </radialGradient><filter id="ccclaymoji-blur" x="-100%" y="-100%" width="400%" height="400%" filterUnits="objectBoundingBox" primitiveUnits="userSpaceOnUse" color-interpolation-filters="sRGB">
	<feGaussianBlur stdDeviation="30" x="0%" y="0%" width="100%" height="100%" in="SourceGraphic" edgeMode="none" result="blur"></feGaussianBlur></filter><filter id="inner-blur" x="-100%" y="-100%" width="400%" height="400%" filterUnits="objectBoundingBox" primitiveUnits="userSpaceOnUse" color-interpolation-filters="sRGB">
	<feGaussianBlur stdDeviation="2" x="0%" y="0%" width="100%" height="100%" in="SourceGraphic" edgeMode="none" result="blur"></feGaussianBlur></filter><filter id="eye-shadow" x="-100%" y="-100%" width="400%" height="400%" filterUnits="objectBoundingBox" primitiveUnits="userSpaceOnUse" color-interpolation-filters="sRGB">
	<feDropShadow stdDeviation="10" dx="10" dy="10" flood-color="#000000" flood-opacity="0.2" x="0%" y="0%" width="100%" height="100%" result="dropShadow"></feDropShadow>
</filter><linearGradient gradientTransform="rotate(-25)" id="eye-light" x1="50%" y1="0%" x2="50%" y2="100%">
      <stop offset="20%" stop-color="#555555" stop-opacity="1"></stop>
      <stop offset="100%" stop-color="black" stop-opacity="0"></stop>
    </linearGradient><linearGradient id="mouth-light" x1="50%" y1="0%" x2="50%" y2="100%">
    <stop offset="0%" stop-color="#ff8670" stop-opacity="1"></stop>
    <stop offset="100%" stop-color="hsla(353, 98%, 41%, 1.00)" stop-opacity="0"></stop>
  </linearGradient><filter id="mouth-shadow" x="-100%" y="-100%" width="400%" height="400%" filterUnits="objectBoundingBox" primitiveUnits="userSpaceOnUse" color-interpolation-filters="sRGB">
	<feDropShadow stdDeviation="10" dx="10" dy="10" flood-color="#950000" flood-opacity="0.2" x="0%" y="0%" width="100%" height="100%" result="dropShadow"></feDropShadow>
</filter></defs><g stroke-linecap="round"><path d="M648.5 450.00000287901685C648.5 602.04047457713 552.0404716981133 725.2924557092056 400 725.2924557092056C247.96019811320755 725.2924557092056 151.5 602.04047457713 151.5 450.00000287901685C151.5 297.9602009922244 247.96019811320755 174.70755004882812 400 174.70755004882812C552.0404716981133 174.70755004882812 648.5 297.9602009922244 648.5 450.00000287901685Z " fill="#cab26a" opacity="0.25" filter="url(#ccclaymoji-blur)"></path><path d="M648.5 399.999998907299C648.5 544.2634643804449 544.2634654731457 661.2109963497543 400 661.2109963497543C255.73717007672633 661.2109963497543 151.5 544.2634643804449 151.5 399.999998907299C151.5 255.73716898402535 255.73717007672633 138.78900146484375 400 138.78900146484375C544.2634654731457 138.78900146484375 648.5 255.73716898402535 648.5 399.999998907299Z " fill="hsl(44, 100%, 80%)"></path><path d="M648.5 399.999998907299C648.5 544.2634643804449 544.2634654731457 661.2109963497543 400 661.2109963497543C255.73717007672633 661.2109963497543 151.5 544.2634643804449 151.5 399.999998907299C151.5 255.73716898402535 255.73717007672633 138.78900146484375 400 138.78900146484375C544.2634654731457 138.78900146484375 648.5 255.73716898402535 648.5 399.999998907299Z " fill="url(#ccclaymoji-grad-dark)"></path><path d="M648.5 399.999998907299C648.5 544.2634643804449 544.2634654731457 661.2109963497543 400 661.2109963497543C255.73717007672633 661.2109963497543 151.5 544.2634643804449 151.5 399.999998907299C151.5 255.73716898402535 255.73717007672633 138.78900146484375 400 138.78900146484375C544.2634654731457 138.78900146484375 648.5 255.73716898402535 648.5 399.999998907299Z " fill="url(#ccclaymoji-grad-light)"></path><ellipse rx="27.5" ry="27" cx="350" cy="375" fill="black" filter="url(#eye-shadow)"></ellipse><ellipse rx="27.5" ry="27" cx="350" cy="375" fill="url(#eye-light)" filter="url(#inner-blur)"></ellipse><ellipse rx="28" ry="28.5" cx="443" cy="373" fill="black" filter="url(#eye-shadow)"></ellipse><ellipse rx="28" ry="28.5" cx="443" cy="373" fill="url(#eye-light)" filter="url(#inner-blur)"></ellipse><path d="M357.5 478.5Q427.5 592.5 466.5 478.5 " fill="hsla(353, 98%, 41%, 1.00)" filter="url(#mouth-shadow)"></path><path d="M357.5 478.5Q427.5 592.5 466.5 478.5 " fill="url(#mouth-light)" filter="url(#inner-blur)"></path></g></svg>